<?xml version="1.0" encoding="UTF-8" standalone="no"?>
<!-- Created with Inkscape (http://www.inkscape.org/) -->

<svg
   width="306.36218"
   height="306.36093"
   viewBox="0 0 81.058328 81.057997"
   version="1.1"
   id="svg5"
   xml:space="preserve"
   inkscape:version="1.2 (dc2aeda, 2022-05-15)"
   sodipodi:docname="logo.svg"
   inkscape:export-filename="logo.png"
   inkscape:export-xdpi="96"
   inkscape:export-ydpi="96"
   xmlns:inkscape="http://www.inkscape.org/namespaces/inkscape"
   xmlns:sodipodi="http://sodipodi.sourceforge.net/DTD/sodipodi-0.dtd"
   xmlns="http://www.w3.org/2000/svg"
   xmlns:svg="http://www.w3.org/2000/svg"><sodipodi:namedview
     id="namedview7"
     pagecolor="#ffffff"
     bordercolor="#000000"
     borderopacity="0.25"
     inkscape:showpageshadow="2"
     inkscape:pageopacity="0.0"
     inkscape:pagecheckerboard="0"
     inkscape:deskcolor="#d1d1d1"
     inkscape:document-units="mm"
     showgrid="false"
     inkscape:zoom="0.84096521"
     inkscape:cx="222.36354"
     inkscape:cy="219.39076"
     inkscape:window-width="1440"
     inkscape:window-height="785"
     inkscape:window-x="0"
     inkscape:window-y="25"
     inkscape:window-maximized="1"
     inkscape:current-layer="layer1" /><defs
     id="defs2" /><g
     inkscape:label="Layer 1"
     inkscape:groupmode="layer"
     id="layer1"
     transform="translate(-68.686938,-65.540751)"><rect
       style="fill:#f6f6f6;fill-opacity:1;stroke:#65a6e9;stroke-width:0.305517;stroke-opacity:1"
       id="rect184"
       width="58.246693"
       height="18.437841"
       x="84.615128"
       y="95.706383"
       ry="1.1234299" /><path
       style="fill:#19446e;fill-opacity:1;stroke-width:0.149748"
       d="m 71.03628,127.42772 c -0.59327,-0.65556 -0.62584,-0.61799 8.1021,-9.34593 5.59956,-5.59956 8.45098,-8.34992 8.65673,-8.34992 0.47964,0 0.85074,0.35669 0.85074,0.8177 0,0.35534 -1.28814,1.70751 -8.36993,8.78599 -5.68416,5.6815 -8.46971,8.36601 -8.68087,8.36601 -0.17101,0 -0.42246,-0.12323 -0.55877,-0.27385 z m 1.55892,-0.87076 0.88602,-0.84513 -0.39364,-0.36481 -0.39365,-0.36482 -0.80299,0.79302 c -0.44165,0.43616 -0.80299,0.9099 -0.80299,1.05275 0,0.20918 0.34044,0.54778 0.57267,0.56955 0.0267,0.003 0.44726,-0.37575 0.93458,-0.84056 z m 14.96715,-14.95544 c 0.81028,-0.81755 0.94038,-1.01765 0.80324,-1.23542 -0.31504,-0.50026 -0.67037,-0.38568 -1.57257,0.5071 -0.88576,0.87652 -1.0313,1.19325 -0.70037,1.52418 0.30343,0.30342 0.4691,0.21371 1.4697,-0.79586 z m 3.64277,1.87404 c -0.12958,-0.47384 -0.20366,-0.5313 -0.77228,-0.59899 l -0.62896,-0.0749 0.45007,-0.29949 c 0.48841,-0.32501 0.52664,-0.45523 0.30488,-1.03849 -0.17568,-0.46207 -0.10423,-0.47609 0.44246,-0.0868 0.41649,0.29656 0.41845,0.29656 0.79547,0 0.51531,-0.40534 0.55278,-0.38031 0.36188,0.24168 -0.13468,0.43884 -0.12512,0.56215 0.0515,0.66361 0.11928,0.0686 0.35164,0.22818 0.51637,0.35474 0.28418,0.21835 0.26799,0.23036 -0.31661,0.23488 -0.57092,0.004 -0.63244,0.0459 -0.83876,0.56631 l -0.22264,0.56155 z m 5.261677,-2.58315 c -0.0793,-0.31421 -0.19436,-0.4118 -0.48533,-0.4118 -0.36973,0 -0.37323,-0.009 -0.11476,-0.29457 0.15548,-0.1718 0.2334,-0.42145 0.18697,-0.59899 -0.0898,-0.34338 0.0423,-0.39406 0.31539,-0.12099 0.14475,0.14475 0.24538,0.14475 0.47716,0 0.40963,-0.25582 0.48273,-0.23072 0.36926,0.12679 -0.0629,0.19817 -0.004,0.41454 0.16286,0.59899 0.2503,0.27657 0.24791,0.28877 -0.0566,0.28877 -0.1945,0 -0.40198,0.15986 -0.53445,0.4118 l -0.21652,0.41181 z m -7.163447,-1.79697 c -0.0528,-0.14413 -0.12753,-0.36314 -0.16613,-0.48668 -0.0457,-0.14628 -0.26765,-0.2265 -0.63642,-0.23 l -0.56625,-0.005 0.42787,-0.34998 c 0.36902,-0.30185 0.41319,-0.41684 0.32113,-0.83604 l -0.10676,-0.48604 0.45898,0.27113 c 0.44392,0.26222 0.46905,0.26202 0.76547,-0.006 0.38855,-0.35163 0.50722,-0.23799 0.30551,0.29256 -0.12942,0.3404 -0.11027,0.44929 0.10812,0.615 0.14596,0.11075 0.31592,0.20351 0.37769,0.20612 0.0618,0.003 0.11231,0.0722 0.11231,0.15451 0,0.0824 -0.2261,0.14975 -0.50245,0.14975 -0.4362,0 -0.52228,0.0642 -0.65279,0.48668 -0.11836,0.38315 -0.17075,0.43093 -0.24628,0.22462 z m 3.3528,-0.29949 c -0.003,-0.16071 -0.12039,-0.26206 -0.30405,-0.26206 -0.16472,0 -0.2995,-0.0674 -0.2995,-0.14975 0,-0.0824 0.0752,-0.14975 0.16721,-0.14975 0.0968,0 0.1376,-0.15486 0.0969,-0.36785 -0.0618,-0.32352 -0.0357,-0.34934 0.21674,-0.21423 0.20783,0.11123 0.35414,0.0991 0.53014,-0.0439 0.21134,-0.17177 0.22917,-0.16052 0.13657,0.0861 -0.0676,0.18003 -0.0146,0.38524 0.14492,0.56155 0.23734,0.26226 0.23376,0.27784 -0.0638,0.27784 -0.17339,0 -0.38395,0.11793 -0.46789,0.26206 -0.14537,0.24958 -0.15286,0.24958 -0.15719,0 z m 2.568967,-2.32474 c -0.17459,-0.5827 -0.21865,-0.61837 -0.81748,-0.66177 l -0.632937,-0.0459 0.493757,-0.29853 c 0.36913,-0.22317 0.47337,-0.37437 0.41298,-0.59899 -0.0444,-0.16525 -0.1265,-0.46595 -0.18236,-0.66822 l -0.10157,-0.36777 0.50409,0.39452 0.5041,0.39451 0.42854,-0.30514 c 0.51982,-0.37014 0.62208,-0.3023 0.4044,0.26831 -0.1513,0.39662 -0.12411,0.4668 0.32709,0.84438 l 0.4921,0.4118 h -0.63077 c -0.40118,0 -0.63323,0.0681 -0.63752,0.18719 -0.004,0.10295 -0.0907,0.3839 -0.19333,0.62434 l -0.18657,0.43715 z m -8.209637,-0.81996 c -0.12779,-0.44817 -0.19695,-0.4926 -0.87412,-0.56155 l -0.73536,-0.0749 0.55701,-0.37436 c 0.41539,-0.27919 0.53724,-0.45052 0.47926,-0.67387 -0.0427,-0.16472 -0.12308,-0.46363 -0.17851,-0.66423 l -0.10079,-0.36475 0.45966,0.32731 c 0.57209,0.40736 0.70382,0.4075 1.27425,0.001 l 0.4578,-0.32599 -0.0966,0.36343 c -0.0531,0.19988 -0.13633,0.50612 -0.18491,0.68054 -0.0699,0.25091 0.0315,0.39162 0.48551,0.67386 l 0.57384,0.35674 -0.74394,0.0749 c -0.6869,0.0691 -0.75458,0.11218 -0.88271,0.56155 -0.0763,0.26767 -0.18667,0.48668 -0.2452,0.48668 -0.0585,0 -0.16887,-0.21901 -0.2452,-0.48668 z m 3.83914,-2.66284 c 0,-0.085 -0.15162,-0.21552 -0.33693,-0.29 -0.18531,-0.0745 -0.2527,-0.1397 -0.14975,-0.14492 0.10295,-0.005 0.18719,-0.18621 0.18719,-0.4022 0,-0.33209 0.0347,-0.36393 0.22462,-0.20629 0.1801,0.14948 0.27342,0.14592 0.47084,-0.0179 0.2183,-0.18117 0.23454,-0.16752 0.14318,0.1203 -0.073,0.23004 -0.0247,0.3702 0.16559,0.48095 0.24412,0.14205 0.23789,0.15673 -0.0683,0.16087 -0.19764,0.003 -0.33693,0.0974 -0.33693,0.22917 0,0.12354 -0.0674,0.22462 -0.14975,0.22462 -0.0824,0 -0.14975,-0.0696 -0.14975,-0.15457 z"
       id="path408" /><text
       xml:space="preserve"
       style="font-size:16.9333px;font-family:Monaco;-inkscape-font-specification:Monaco;fill:#19446e;fill-opacity:1;stroke:#65a6e9;stroke-width:0.264583;stroke-opacity:1"
       x="99.221153"
       y="111.79206"
       id="text1581"><tspan
         sodipodi:role="line"
         id="tspan1579"
         style="font-style:normal;font-variant:normal;font-weight:normal;font-stretch:normal;font-family:Futura;-inkscape-font-specification:Futura;fill:#19446e;fill-opacity:1;stroke:none;stroke-width:0.264583"
         x="99.221153"
         y="111.79206">ika</tspan></text><path
       style="fill:none;fill-opacity:1;stroke:#85a5c9;stroke-width:1.05833;stroke-dasharray:none;stroke-opacity:0.798635"
       d="M 123.47028,97.138892 V 112.71172"
       id="path2007" /></g></svg>
